PathFileType	4	(X/Y/Z)	C:\Users\Basilio\Documents\Thesis Gigler\squatting_fais\c3dfiles\054\SLS_back_pre1\markers_experimental.trc
DataRate	CameraRate	NumFrames	NumMarkers	Units	OrigDataRate	OrigDataStartFrame	OrigNumFrames
200.000000	200.000000	4	61	mm	200.000000	1086	1738
Frame#	Time	FHD			LBHD			RBHD			C7			T10			CLAV			LSHO			LUUPA			LMUPA			LDUPA			LLEP			LMEP			LRAD			LUL			LRFIN			RSHO			RUPA1			RMUPA			RDUPA			RLEP			RMEP			RRAD			RUL			RUFIN			LASI			RASI			USACR			LSACR			RSACR			LTHI1			LTHI2			LTHI3			LTHI4			LLFC			LMFC			LTIB1			LTIB2			LTIB3			LTIB4			LLMAL			LMMAL			LHEE			LMT1			LMT2			LMT5			RTHI			RTHI2			RTHI3			RTHI4			RLFC			RMFC			RTIB1			RTIB2			RTIB3			RTIB4			RLMAL			RMMAL			RHEE			RMT1			RMT2			RMT5			
		X1	Y1	Z1	X2	Y2	Z2	X3	Y3	Z3	X4	Y4	Z4	X5	Y5	Z5	X6	Y6	Z6	X7	Y7	Z7	X8	Y8	Z8	X9	Y9	Z9	X10	Y10	Z10	X11	Y11	Z11	X12	Y12	Z12	X13	Y13	Z13	X14	Y14	Z14	X15	Y15	Z15	X16	Y16	Z16	X17	Y17	Z17	X18	Y18	Z18	X19	Y19	Z19	X20	Y20	Z20	X21	Y21	Z21	X22	Y22	Z22	X23	Y23	Z23	X24	Y24	Z24	X25	Y25	Z25	X26	Y26	Z26	X27	Y27	Z27	X28	Y28	Z28	X29	Y29	Z29	X30	Y30	Z30	X31	Y31	Z31	X32	Y32	Z32	X33	Y33	Z33	X34	Y34	Z34	X35	Y35	Z35	X36	Y36	Z36	X37	Y37	Z37	X38	Y38	Z38	X39	Y39	Z39	X40	Y40	Z40	X41	Y41	Z41	X42	Y42	Z42	X43	Y43	Z43	X44	Y44	Z44	X45	Y45	Z45	X46	Y46	Z46	X47	Y47	Z47	X48	Y48	Z48	X49	Y49	Z49	X50	Y50	Z50	X51	Y51	Z51	X52	Y52	Z52	X53	Y53	Z53	X54	Y54	Z54	X55	Y55	Z55	X56	Y56	Z56	X57	Y57	Z57	X58	Y58	Z58	X59	Y59	Z59	X60	Y60	Z60	X61	Y61	Z61	

1087	5.43	-23.00236701965332	1463.293090820313	-1073.59912109375	-189.1079254150391	1415.141967773438	-1137.424438476563	-200.2293701171876	1414.878662109375	-997.3280029296877	-242.5802307128907	1271.78466796875	-1051.530029296875	-392.7591552734376	987.9475708007815	-1035.451171875	-121.8436126708985	1177.019165039063	-1068.942504882813	-180.6551208496094	1264.629516601563	-1201.913330078125	-43.1036491394043	1154.594116210938	-1333.380615234375	-10.18608665466309	1188.093383789063	-1318.6513671875	24.83921813964844	1146.96923828125	-1344.638671875	84.07539367675783	1151.082885742188	-1341.981811523438	86.24177551269533	1084.794189453125	-1300.265625	335.9428710937501	1182.54296875	-1251.970703125	356.2349548339844	1153.427124023438	-1321.049560546875	427.783905029297	1209.124267578125	-1267.127685546875	-158.7960052490235	1258.24267578125	-925.5816040039065	-0.3216936588287354	1161.6669921875	-804.100769042969	31.93204879760743	1194.101806640625	-819.0086669921877	69.39373016357423	1150.319213867188	-797.1710205078127	114.0701904296875	1148.322265625	-802.1466064453127	112.0543899536133	1090.674682617188	-850.5889282226565	367.3249816894532	1219.782592773438	-918.3957519531252	378.0647277832032	1187.66650390625	-845.3477783203127	440.136444091797	1256.923095703125	-908.8112792968752	-296.0757751464844	781.198669433594	-1168.217407226563	-292.3300781250001	757.5926513671876	-918.112731933594	-434.4404296875001	912.4463500976565	-1031.817504882813	-456.2114562988282	888.6347656250002	-1061.31884765625	-450.1984863281251	882.4717407226565	-1004.1240234375	-295.5922241210938	605.2803344726564	-1244.132446289063	-217.0373229980469	573.4075317382814	-1234.595825195313	-186.4164581298828	609.1240844726564	-1227.695556640625	-197.8011779785157	518.2516479492189	-1219.568969726563	-106.2607040405274	421.1994628906251	-1178.222045898438	-85.23441314697267	449.8490600585939	-1043.349609375	-138.9322357177735	284.2752990722657	-1090.596069335938	-202.9087677001954	256.4344177246094	-1144.000610351563	-173.8696899414063	242.1423950195313	-1113.607543945313	-224.9942016601563	194.1539764404297	-1066.442626953125	-350.3815917968751	105.8240051269532	-1094.379272460938	-317.0490417480469	132.742431640625	-1003.212646484375	-424.6846313476564	101.5618515014649	-1033.5322265625	-213.7014312744141	53.75909423828126	-1011.121826171875	-205.5352630615235	52.66340637207033	-1060.536010742188	-258.1458129882813	37.76006698608399	-1112.270141601563	-406.1560058593751	479.5002746582032	-833.9388427734377	-371.0062255859376	421.7882080078126	-833.5697021484377	-338.2304992675782	418.4131774902345	-840.424987792969	-407.4569702148439	347.3217773437501	-850.4334716796877	-432.2221679687501	298.9799194335938	-856.0249633789065	-385.9647827148439	267.2661132812501	-984.799011230469	-511.0782775878907	223.2126159667969	-883.5544433593752	-595.4505004882814	284.4475402832032	-856.1466064453127	-595.9356689453126	239.7189636230469	-871.4817504882815	-639.5534057617189	224.9576721191407	-905.5587158203127	-820.295837402344	270.2144775390626	-909.4163818359377	-785.6621704101565	238.0326843261719	-995.1587524414065	-827.6378173828127	338.0286865234376	-967.6304931640627	-878.229919433594	124.1967849731446	-1005.872436523438	-887.4995727539065	117.4390335083008	-959.8674926757815	-912.6823730468752	166.1318817138672	-916.0994262695315	
1088	5.435	-22.48899269104004	1462.59912109375	-1073.778686523438	-188.7280426025391	1414.739379882813	-1137.52587890625	-200.0410614013672	1414.43603515625	-997.333190917969	-242.5244598388672	1271.185791015625	-1051.49169921875	-392.6956176757814	987.5620117187502	-1035.39111328125	-121.6535186767578	1176.411987304688	-1068.991821289063	-180.0427703857422	1263.92333984375	-1201.812744140625	-42.97177124023438	1154.134765625	-1333.441284179688	-9.96157741546631	1187.752075195313	-1318.593017578125	25.30206489562989	1146.527465820313	-1344.917724609375	84.21128845214845	1150.591430664063	-1342.044677734375	86.39611053466798	1084.242065429688	-1300.123291015625	336.2144165039063	1182.039916992188	-1252.067016601563	356.2707214355469	1152.935791015625	-1321.1083984375	428.0714416503907	1208.667358398438	-1267.273193359375	-158.594955444336	1257.739868164063	-925.6629028320315	0.07523923367261888	1161.063110351563	-804.237976074219	32.17155838012696	1193.581909179688	-819.0740966796877	69.63198852539064	1149.837158203125	-797.2407836914065	114.1845321655274	1147.817749023438	-802.2777099609377	112.2824630737305	1090.321533203125	-850.7669677734377	367.3016662597657	1218.494262695313	-918.187683105469	378.2327575683594	1186.950317382813	-845.6381835937502	440.4442443847657	1256.376953125	-908.9570922851565	-296.1464843750001	780.618591308594	-1168.181640625	-292.4213562011719	757.2600097656251	-918.1087036132815	-434.2445678710939	912.0657958984377	-1031.937377929688	-456.0870666503907	888.1866455078127	-1061.35546875	-450.1854553222657	882.1843261718752	-1004.051147460938	-295.5810852050782	605.0833129882814	-1244.137573242188	-217.0348205566407	573.2521362304689	-1234.598388671875	-186.3943481445313	608.9818115234376	-1227.698608398438	-197.7870483398438	518.1104736328126	-1219.572143554688	-106.0334548950196	421.1729431152345	-1178.2333984375	-85.14956665039064	449.8079528808595	-1043.310791015625	-138.7965240478516	284.2654418945313	-1090.535766601563	-202.9443359375001	256.3692932128907	-1143.9892578125	-173.7367095947266	242.1806640625001	-1113.575317382813	-225.0165557861329	194.0954284667969	-1066.445922851563	-350.3421020507813	105.8549346923828	-1094.385620117188	-317.0196533203126	132.7475891113282	-1003.197204589844	-424.6800842285157	101.6089630126953	-1033.531372070313	-213.674301147461	53.787899017334	-1011.135620117188	-205.5219116210938	52.65985107421876	-1060.480224609375	-258.0965881347657	37.7560157775879	-1112.211547851563	-406.3123779296876	478.9492492675782	-833.949890136719	-371.1293029785157	421.3085327148439	-833.622985839844	-338.3731384277344	418.1405639648439	-840.5429687500002	-407.5444641113282	347.0140991210938	-850.5149536132815	-432.3246459960939	298.5336914062501	-856.0759277343752	-386.0438537597657	266.9366760253907	-984.875183105469	-511.1689758300782	222.7222442626954	-883.576354980469	-595.4161987304689	284.1500549316407	-856.078308105469	-596.0270996093751	239.4688873291016	-871.5168457031252	-639.6407470703126	224.6311187744141	-905.630310058594	-820.355163574219	270.0084228515626	-909.3280029296877	-785.8352661132815	237.8270721435547	-995.1467285156252	-827.7231445312502	337.8553771972657	-967.6084594726565	-878.4595336914065	124.1823196411133	-1006.174072265625	-887.8377075195315	117.3619384765625	-959.630065917969	-912.9020996093752	165.8948059082032	-915.9492797851565	
1089	5.44	-22.28625869750977	1462.042236328125	-1073.717895507813	-188.1390686035157	1414.115234375	-1137.582763671875	-199.8615417480469	1414.070922851563	-997.2644042968752	-242.3164978027344	1270.658447265625	-1051.561645507813	-392.6775512695314	987.2014770507815	-1035.448364257813	-121.2244110107422	1175.934448242188	-1068.945556640625	-180.0660858154297	1263.60888671875	-1201.832885742188	-42.82867813110352	1153.749755859375	-1333.462646484375	-9.872982025146486	1187.211303710938	-1318.65380859375	25.57160949707032	1145.968505859375	-1344.954956054688	84.42587280273439	1149.99658203125	-1342.058227539063	86.71840667724611	1083.532958984375	-1300.400024414063	336.3439025878907	1181.571899414063	-1252.126342773438	356.3646850585938	1152.402465820313	-1321.19873046875	428.014373779297	1208.4404296875	-1267.418090820313	-158.3150787353516	1257.18408203125	-925.7388916015627	0.3126030564308167	1160.409301757813	-804.248474121094	32.59566497802735	1192.903564453125	-819.3069458007815	69.68593597412111	1149.362060546875	-797.269714355469	114.423698425293	1147.303588867188	-802.3645019531252	112.5855865478516	1089.870239257813	-850.8215332031252	367.5426330566407	1218.435424804688	-918.5711059570315	378.4775085449219	1186.45703125	-845.5008544921877	440.6587219238282	1255.935546875	-909.082702636719	-296.1134948730469	780.2021484375002	-1168.132690429688	-292.5488281250001	756.7754516601564	-918.003845214844	-434.2807922363282	911.6777954101565	-1031.931640625	-456.1112365722657	887.8462524414065	-1061.3642578125	-450.1970214843751	881.9073486328127	-1004.061157226563	-295.6644287109376	604.7847900390626	-1244.114013671875	-217.0400543212891	573.1264648437501	-1234.595703125	-186.4421081542969	608.8753662109376	-1227.6572265625	-197.6850128173829	517.9805297851564	-1219.576293945313	-105.8624114990235	421.0528259277345	-1178.25146484375	-85.03324127197267	449.7597045898439	-1043.221313476563	-138.8514251708985	284.1496582031251	-1090.545043945313	-202.8177947998047	256.3629150390626	-1143.95263671875	-173.6405792236328	242.0370025634766	-1113.545043945313	-224.9417419433594	194.0371856689454	-1066.481079101563	-350.2979125976563	105.8572387695313	-1094.388549804688	-317.0313110351563	132.798324584961	-1003.185974121094	-424.6785278320314	101.6107940673828	-1033.5	-213.6660461425782	53.79161453247072	-1011.129089355469	-205.5263214111329	52.63829040527345	-1060.51708984375	-258.1416931152344	37.73616409301759	-1112.249145507813	-406.259246826172	478.4258728027345	-834.0440673828127	-371.2410583496094	420.963104248047	-833.6687011718752	-338.4747924804688	417.772918701172	-840.646179199219	-407.4932556152345	346.4920043945313	-850.6829833984377	-432.3900451660157	298.1249694824219	-856.1292724609377	-386.1477966308595	266.5532836914063	-984.946960449219	-511.2407836914064	222.3800201416016	-883.800720214844	-595.4825439453126	283.7779541015626	-856.0874023437502	-596.1219482421876	239.2667388916016	-871.631042480469	-639.8670654296876	224.2697753906251	-905.512390136719	-820.4431762695315	269.7755432128907	-909.233337402344	-786.0007934570315	237.7026519775391	-995.0413208007815	-827.7287597656252	337.6316223144532	-967.5540161132815	-878.5559692382815	124.1150588989258	-1006.189819335938	-888.175476074219	117.2375030517578	-959.4221191406252	-913.1037597656252	165.7099761962891	-915.7869873046877	
1090	5.445	-21.90059852600098	1461.367065429688	-1073.8388671875	-187.7792205810547	1413.431884765625	-1137.596923828125	-199.442855834961	1413.584228515625	-997.3260498046877	-242.1965484619141	1270.133422851563	-1051.538208007813	-392.7035522460939	986.8499755859377	-1035.482666015625	-121.0226364135742	1175.387573242188	-1068.929321289063	-179.7692108154297	1263.1884765625	-1201.857299804688	-42.63531494140626	1153.244384765625	-1333.510498046875	-9.724024772644045	1186.694213867188	-1318.72216796875	24.93717956542969	1145.81494140625	-1344.92041015625	84.52376556396486	1149.557983398438	-1342.14111328125	86.44212341308595	1083.44384765625	-1300.348999023438	336.6127624511719	1181.102416992188	-1252.208129882813	356.5146789550782	1151.914672851563	-1321.2607421875	428.0887451171876	1207.963134765625	-1267.60107421875	-158.1876831054688	1256.675903320313	-925.732604980469	0.7044447660446168	1160.086181640625	-804.352722167969	32.79037475585938	1192.432739257813	-819.335388183594	69.81072998046876	1148.946655273438	-797.3676757812502	114.7772750854492	1146.71044921875	-802.493591308594	112.7967300415039	1089.220947265625	-850.9381103515627	367.8735351562501	1217.838134765625	-918.814880371094	378.4350280761719	1185.828491210938	-845.7105102539065	440.7685852050782	1255.197387695313	-909.2112426757815	-296.1036682128907	779.7871093750002	-1168.03564453125	-292.7084655761719	756.4571533203126	-917.9163818359377	-434.320281982422	911.3594360351565	-1031.870483398438	-456.1090393066407	887.6187133789065	-1061.34228515625	-450.1529541015626	881.443298339844	-1004.111389160156	-295.6563720703126	604.5426635742189	-1244.121704101563	-217.0688629150391	572.9644165039064	-1234.544067382813	-186.4174346923828	608.7673339843751	-1227.656494140625	-197.6451110839844	517.8095092773439	-1219.513061523438	-105.6638717651367	420.9856567382814	-1178.262329101563	-84.98657226562501	449.6909790039064	-1043.227416992188	-138.7466583251953	284.1287536621094	-1090.553588867188	-202.7753448486329	256.2828979492188	-1143.923095703125	-173.6307983398438	242.0104980468751	-1113.482177734375	-224.9739379882813	193.8691101074219	-1066.429321289063	-350.3149414062501	105.8726196289063	-1094.406005859375	-317.0339660644532	132.7562713623047	-1003.167297363281	-424.6805725097657	101.6249618530274	-1033.503540039063	-213.6600341796876	53.76076126098634	-1011.112060546875	-205.5069274902344	52.6425247192383	-1060.494262695313	-258.1480407714844	37.77258682250977	-1112.263671875	-406.3747863769532	478.0558166503907	-834.1254882812502	-371.2942504882813	420.6192626953126	-833.7344360351565	-338.6369934082032	417.2856750488282	-840.659118652344	-407.515838623047	346.0409240722657	-850.777038574219	-432.4068908691407	297.6705017089844	-856.3657836914065	-386.310272216797	266.1866455078126	-985.0877075195315	-511.3059082031251	221.8922424316407	-883.7880859375002	-595.5238647460939	283.3903503417969	-856.1499023437502	-596.2443847656251	238.8541412353516	-871.5886230468752	-639.9908447265626	223.9967346191407	-905.5463867187502	-820.5274047851565	269.5497131347657	-909.1783447265627	-786.1634521484377	237.5254058837891	-995.0040283203127	-827.804138183594	337.4388732910157	-967.4593505859377	-878.571716308594	123.8935928344727	-1005.817993164063	-888.4063110351565	117.095947265625	-959.2898559570315	-913.2182617187502	165.5626525878907	-915.690124511719	
